<svg xmlns="http://www.w3.org/2000/svg" viewBox="0 0 200 200" role="img" aria-labelledby="t">
<title id="t">Interpretive illustration: a densely interconnected network, the whole ring in communication</title>
<circle cx="100" cy="100" r="74" fill="none" stroke="rgba(38,48,42,0.10)" stroke-width="1"/>
<g fill="none" stroke-linecap="round">
<path d="M100.0,26.0 Q125.8,71.4 173.6,92.3" stroke="#3b3e92" stroke-width="1.0" opacity="0.55"/>
<path d="M115.4,27.6 Q131.1,77.4 173.6,107.7" stroke="#6d3d96" stroke-width="1.0" opacity="0.55"/>
<path d="M130.1,32.4 Q135.2,84.3 170.4,122.9" stroke="#a1336d" stroke-width="1.0" opacity="0.55"/>
<path d="M143.5,40.1 Q137.7,92.0 164.1,137.0" stroke="#b9311d" stroke-width="1.0" opacity="0.55"/>
<path d="M155.0,50.5 Q138.5,100.0 155.0,149.5" stroke="#c14805" stroke-width="1.0" opacity="0.55"/>
<path d="M164.1,63.0 Q137.7,108.0 143.5,159.9" stroke="#c06806" stroke-width="1.0" opacity="0.55"/>
<path d="M170.4,77.1 Q135.2,115.7 130.1,167.6" stroke="#c58506" stroke-width="1.0" opacity="0.55"/>
<path d="M173.6,92.3 Q131.1,122.6 115.4,172.4" stroke="#c69d08" stroke-width="1.0" opacity="0.55"/>
<path d="M173.6,107.7 Q125.8,128.6 100.0,174.0" stroke="#c4b306" stroke-width="1.0" opacity="0.55"/>
<path d="M170.4,122.9 Q119.2,133.3 84.6,172.4" stroke="#c3c608" stroke-width="1.0" opacity="0.55"/>
<path d="M164.1,137.0 Q111.9,136.6 69.9,167.6" stroke="#95bc0b" stroke-width="1.0" opacity="0.55"/>
<path d="M155.0,149.5 Q104.0,138.3 56.5,159.9" stroke="#6aa914" stroke-width="1.0" opacity="0.55"/>
<path d="M143.5,159.9 Q96.0,138.3 45.0,149.5" stroke="#1e8d21" stroke-width="1.0" opacity="0.55"/>
<path d="M130.1,167.6 Q88.1,136.6 35.9,137.0" stroke="#238768" stroke-width="1.0" opacity="0.55"/>
<path d="M115.4,172.4 Q80.8,133.3 29.6,122.9" stroke="#2c628d" stroke-width="1.0" opacity="0.55"/>
<path d="M100.0,174.0 Q74.2,128.6 26.4,107.7" stroke="#3b3e92" stroke-width="1.0" opacity="0.55"/>
<path d="M84.6,172.4 Q68.9,122.6 26.4,92.3" stroke="#6d3d96" stroke-width="1.0" opacity="0.55"/>
<path d="M69.9,167.6 Q64.8,115.7 29.6,77.1" stroke="#a1336d" stroke-width="1.0" opacity="0.55"/>
<path d="M56.5,159.9 Q62.3,108.0 35.9,63.0" stroke="#b9311d" stroke-width="1.0" opacity="0.55"/>
<path d="M45.0,149.5 Q61.5,100.0 45.0,50.5" stroke="#c14805" stroke-width="1.0" opacity="0.55"/>
<path d="M35.9,137.0 Q62.3,92.0 56.5,40.1" stroke="#c06806" stroke-width="1.0" opacity="0.55"/>
<path d="M29.6,122.9 Q64.8,84.3 69.9,32.4" stroke="#c58506" stroke-width="1.0" opacity="0.55"/>
<path d="M26.4,107.7 Q68.9,77.4 84.6,27.6" stroke="#c69d08" stroke-width="1.0" opacity="0.55"/>
<path d="M26.4,92.3 Q74.2,71.4 100.0,26.0" stroke="#c4b306" stroke-width="1.0" opacity="0.55"/>
<path d="M29.6,77.1 Q80.8,66.7 115.4,27.6" stroke="#c3c608" stroke-width="1.0" opacity="0.55"/>
<path d="M35.9,63.0 Q88.1,63.4 130.1,32.4" stroke="#95bc0b" stroke-width="1.0" opacity="0.55"/>
<path d="M45.0,50.5 Q96.0,61.7 143.5,40.1" stroke="#6aa914" stroke-width="1.0" opacity="0.55"/>
<path d="M56.5,40.1 Q104.0,61.7 155.0,50.5" stroke="#1e8d21" stroke-width="1.0" opacity="0.55"/>
<path d="M69.9,32.4 Q111.9,63.4 164.1,63.0" stroke="#238768" stroke-width="1.0" opacity="0.55"/>
<path d="M84.6,27.6 Q119.2,66.7 170.4,77.1" stroke="#2c628d" stroke-width="1.0" opacity="0.55"/>
<path d="M100.0,26.0 Q119.2,91.4 155.0,149.5" stroke="#c06806" stroke-width="1.0" opacity="0.55"/>
<path d="M115.4,27.6 Q120.6,95.6 143.5,159.9" stroke="#c58506" stroke-width="1.0" opacity="0.55"/>
<path d="M130.1,32.4 Q121.1,100.0 130.1,167.6" stroke="#c69d08" stroke-width="1.0" opacity="0.55"/>
<path d="M143.5,40.1 Q120.6,104.4 115.4,172.4" stroke="#c4b306" stroke-width="1.0" opacity="0.55"/>
<path d="M155.0,50.5 Q119.2,108.6 100.0,174.0" stroke="#c3c608" stroke-width="1.0" opacity="0.55"/>
<path d="M164.1,63.0 Q117.0,112.4 84.6,172.4" stroke="#95bc0b" stroke-width="1.0" opacity="0.55"/>
<path d="M170.4,77.1 Q114.1,115.7 69.9,167.6" stroke="#6aa914" stroke-width="1.0" opacity="0.55"/>
<path d="M173.6,92.3 Q110.5,118.2 56.5,159.9" stroke="#1e8d21" stroke-width="1.0" opacity="0.55"/>
<path d="M173.6,107.7 Q106.5,120.0 45.0,149.5" stroke="#238768" stroke-width="1.0" opacity="0.55"/>
<path d="M170.4,122.9 Q102.2,121.0 35.9,137.0" stroke="#2c628d" stroke-width="1.0" opacity="0.55"/>
<path d="M164.1,137.0 Q97.8,121.0 29.6,122.9" stroke="#3b3e92" stroke-width="1.0" opacity="0.55"/>
<path d="M155.0,149.5 Q93.5,120.0 26.4,107.7" stroke="#6d3d96" stroke-width="1.0" opacity="0.55"/>
<path d="M143.5,159.9 Q89.5,118.2 26.4,92.3" stroke="#a1336d" stroke-width="1.0" opacity="0.55"/>
<path d="M130.1,167.6 Q85.9,115.7 29.6,77.1" stroke="#b9311d" stroke-width="1.0" opacity="0.55"/>
<path d="M115.4,172.4 Q83.0,112.4 35.9,63.0" stroke="#c14805" stroke-width="1.0" opacity="0.55"/>
<path d="M100.0,174.0 Q80.8,108.6 45.0,50.5" stroke="#c06806" stroke-width="1.0" opacity="0.55"/>
<path d="M84.6,172.4 Q79.4,104.4 56.5,40.1" stroke="#c58506" stroke-width="1.0" opacity="0.55"/>
<path d="M69.9,167.6 Q78.9,100.0 69.9,32.4" stroke="#c69d08" stroke-width="1.0" opacity="0.55"/>
<path d="M56.5,159.9 Q79.4,95.6 84.6,27.6" stroke="#c4b306" stroke-width="1.0" opacity="0.55"/>
<path d="M45.0,149.5 Q80.8,91.4 100.0,26.0" stroke="#c3c608" stroke-width="1.0" opacity="0.55"/>
<path d="M35.9,137.0 Q83.0,87.6 115.4,27.6" stroke="#95bc0b" stroke-width="1.0" opacity="0.55"/>
<path d="M29.6,122.9 Q85.9,84.3 130.1,32.4" stroke="#6aa914" stroke-width="1.0" opacity="0.55"/>
<path d="M26.4,107.7 Q89.5,81.8 143.5,40.1" stroke="#1e8d21" stroke-width="1.0" opacity="0.55"/>
<path d="M26.4,92.3 Q93.5,80.0 155.0,50.5" stroke="#238768" stroke-width="1.0" opacity="0.55"/>
<path d="M29.6,77.1 Q97.8,79.0 164.1,63.0" stroke="#2c628d" stroke-width="1.0" opacity="0.55"/>
<path d="M35.9,63.0 Q102.2,79.0 170.4,77.1" stroke="#3b3e92" stroke-width="1.0" opacity="0.55"/>
<path d="M45.0,50.5 Q106.5,80.0 173.6,92.3" stroke="#6d3d96" stroke-width="1.0" opacity="0.55"/>
<path d="M56.5,40.1 Q110.5,81.8 173.6,107.7" stroke="#a1336d" stroke-width="1.0" opacity="0.55"/>
<path d="M69.9,32.4 Q114.1,84.3 170.4,122.9" stroke="#b9311d" stroke-width="1.0" opacity="0.55"/>
<path d="M84.6,27.6 Q117.0,87.6 164.1,137.0" stroke="#c14805" stroke-width="1.0" opacity="0.55"/>
<path d="M100.0,26.0 Q110.5,97.8 130.1,167.6" stroke="#95bc0b" stroke-width="1.0" opacity="0.55"/>
<path d="M115.4,27.6 Q110.8,100.0 115.4,172.4" stroke="#6aa914" stroke-width="1.0" opacity="0.55"/>
<path d="M130.1,32.4 Q110.5,102.2 100.0,174.0" stroke="#1e8d21" stroke-width="1.0" opacity="0.55"/>
<path d="M143.5,40.1 Q109.8,104.4 84.6,172.4" stroke="#238768" stroke-width="1.0" opacity="0.55"/>
<path d="M155.0,50.5 Q108.7,106.3 69.9,167.6" stroke="#2c628d" stroke-width="1.0" opacity="0.55"/>
<path d="M164.1,63.0 Q107.2,108.0 56.5,159.9" stroke="#3b3e92" stroke-width="1.0" opacity="0.55"/>
<path d="M170.4,77.1 Q105.4,109.3 45.0,149.5" stroke="#6d3d96" stroke-width="1.0" opacity="0.55"/>
<path d="M173.6,92.3 Q103.3,110.2 35.9,137.0" stroke="#a1336d" stroke-width="1.0" opacity="0.55"/>
<path d="M173.6,107.7 Q101.1,110.7 29.6,122.9" stroke="#b9311d" stroke-width="1.0" opacity="0.55"/>
<path d="M170.4,122.9 Q98.9,110.7 26.4,107.7" stroke="#c14805" stroke-width="1.0" opacity="0.55"/>
<path d="M164.1,137.0 Q96.7,110.2 26.4,92.3" stroke="#c06806" stroke-width="1.0" opacity="0.55"/>
<path d="M155.0,149.5 Q94.6,109.3 29.6,77.1" stroke="#c58506" stroke-width="1.0" opacity="0.55"/>
<path d="M143.5,159.9 Q92.8,108.0 35.9,63.0" stroke="#c69d08" stroke-width="1.0" opacity="0.55"/>
<path d="M130.1,167.6 Q91.3,106.3 45.0,50.5" stroke="#c4b306" stroke-width="1.0" opacity="0.55"/>
<path d="M115.4,172.4 Q90.2,104.4 56.5,40.1" stroke="#c3c608" stroke-width="1.0" opacity="0.55"/>
<path d="M100.0,174.0 Q89.5,102.2 69.9,32.4" stroke="#95bc0b" stroke-width="1.0" opacity="0.55"/>
<path d="M84.6,172.4 Q89.2,100.0 84.6,27.6" stroke="#6aa914" stroke-width="1.0" opacity="0.55"/>
<path d="M69.9,167.6 Q89.5,97.8 100.0,26.0" stroke="#1e8d21" stroke-width="1.0" opacity="0.55"/>
<path d="M56.5,159.9 Q90.2,95.6 115.4,27.6" stroke="#238768" stroke-width="1.0" opacity="0.55"/>
<path d="M45.0,149.5 Q91.3,93.7 130.1,32.4" stroke="#2c628d" stroke-width="1.0" opacity="0.55"/>
<path d="M35.9,137.0 Q92.8,92.0 143.5,40.1" stroke="#3b3e92" stroke-width="1.0" opacity="0.55"/>
<path d="M29.6,122.9 Q94.6,90.7 155.0,50.5" stroke="#6d3d96" stroke-width="1.0" opacity="0.55"/>
<path d="M26.4,107.7 Q96.7,89.8 164.1,63.0" stroke="#a1336d" stroke-width="1.0" opacity="0.55"/>
<path d="M26.4,92.3 Q98.9,89.3 170.4,77.1" stroke="#b9311d" stroke-width="1.0" opacity="0.55"/>
<path d="M29.6,77.1 Q101.1,89.3 173.6,92.3" stroke="#c14805" stroke-width="1.0" opacity="0.55"/>
<path d="M35.9,63.0 Q103.3,89.8 173.6,107.7" stroke="#c06806" stroke-width="1.0" opacity="0.55"/>
<path d="M45.0,50.5 Q105.4,90.7 170.4,122.9" stroke="#c58506" stroke-width="1.0" opacity="0.55"/>
<path d="M56.5,40.1 Q107.2,92.0 164.1,137.0" stroke="#c69d08" stroke-width="1.0" opacity="0.55"/>
<path d="M69.9,32.4 Q108.7,93.7 155.0,149.5" stroke="#c4b306" stroke-width="1.0" opacity="0.55"/>
<path d="M84.6,27.6 Q109.8,95.6 143.5,159.9" stroke="#c3c608" stroke-width="1.0" opacity="0.55"/>
</g>
<circle cx="100.0" cy="26.0" r="3.0" fill="#3b3e92"/>
<circle cx="115.4" cy="27.6" r="3.0" fill="#6d3d96"/>
<circle cx="130.1" cy="32.4" r="3.0" fill="#a1336d"/>
<circle cx="143.5" cy="40.1" r="3.0" fill="#b9311d"/>
<circle cx="155.0" cy="50.5" r="3.0" fill="#c14805"/>
<circle cx="164.1" cy="63.0" r="3.0" fill="#c06806"/>
<circle cx="170.4" cy="77.1" r="3.0" fill="#c58506"/>
<circle cx="173.6" cy="92.3" r="3.0" fill="#c69d08"/>
<circle cx="173.6" cy="107.7" r="3.0" fill="#c4b306"/>
<circle cx="170.4" cy="122.9" r="3.0" fill="#c3c608"/>
<circle cx="164.1" cy="137.0" r="3.0" fill="#95bc0b"/>
<circle cx="155.0" cy="149.5" r="3.0" fill="#6aa914"/>
<circle cx="143.5" cy="159.9" r="3.0" fill="#1e8d21"/>
<circle cx="130.1" cy="167.6" r="3.0" fill="#238768"/>
<circle cx="115.4" cy="172.4" r="3.0" fill="#2c628d"/>
<circle cx="100.0" cy="174.0" r="3.0" fill="#3b3e92"/>
<circle cx="84.6" cy="172.4" r="3.0" fill="#6d3d96"/>
<circle cx="69.9" cy="167.6" r="3.0" fill="#a1336d"/>
<circle cx="56.5" cy="159.9" r="3.0" fill="#b9311d"/>
<circle cx="45.0" cy="149.5" r="3.0" fill="#c14805"/>
<circle cx="35.9" cy="137.0" r="3.0" fill="#c06806"/>
<circle cx="29.6" cy="122.9" r="3.0" fill="#c58506"/>
<circle cx="26.4" cy="107.7" r="3.0" fill="#c69d08"/>
<circle cx="26.4" cy="92.3" r="3.0" fill="#c4b306"/>
<circle cx="29.6" cy="77.1" r="3.0" fill="#c3c608"/>
<circle cx="35.9" cy="63.0" r="3.0" fill="#95bc0b"/>
<circle cx="45.0" cy="50.5" r="3.0" fill="#6aa914"/>
<circle cx="56.5" cy="40.1" r="3.0" fill="#1e8d21"/>
<circle cx="69.9" cy="32.4" r="3.0" fill="#238768"/>
<circle cx="84.6" cy="27.6" r="3.0" fill="#2c628d"/>
</svg>